<?xml version="1.0" standalone="no"?>
<!DOCTYPE svg PUBLIC "-//W3C//DTD SVG 20010904//EN"
 "http://www.w3.org/TR/2001/REC-SVG-20010904/DTD/svg10.dtd">
<svg version="1.0" xmlns="http://www.w3.org/2000/svg"
 width="16.000000pt" height="16.000000pt" viewBox="0 0 16.000000 16.000000"
 preserveAspectRatio="xMidYMid meet">
<metadata>
Created by potrace 1.11, written by Peter Selinger 2001-2013
</metadata>
<g transform="translate(0.000000,16.000000) scale(0.001600,-0.001600)"
fill="#000000" stroke="none">
<path d="M4655 9944 c-272 -15 -415 -34 -687 -95 -610 -137 -1178 -377 -1683
-712 -406 -270 -952 -802 -1317 -1282 -156 -206 -384 -612 -513 -915 -229
-537 -354 -1026 -410 -1605 -9 -88 -22 -198 -30 -245 -13 -72 -15 -317 -15
-1550 0 -936 4 -1499 11 -1560 5 -52 14 -412 19 -800 6 -388 14 -738 19 -779
6 -43 21 -94 36 -125 55 -106 174 -198 292 -226 71 -16 316 -17 1758 -2 671 6
2622 14 4335 17 1925 3 3134 8 3165 14 129 25 248 93 302 175 68 100 63 -118
63 2751 0 2271 -2 2616 -15 2725 -92 753 -462 1628 -943 2235 -288 362 -609
676 -1052 1031 -352 281 -723 486 -1210 667 -699 260 -1224 329 -2125 281z
m725 -164 c631 -44 1237 -208 1800 -488 387 -193 662 -383 1020 -708 175 -159
499 -487 596 -604 519 -625 859 -1378 1003 -2220 59 -347 56 -179 55 -2805 -1
-2511 -1 -2502 -44 -2573 -25 -41 -99 -83 -185 -105 -66 -17 -224 -18 -3000
-28 -1611 -5 -3675 -8 -4585 -7 l-1655 3 -45 25 c-24 14 -58 44 -74 68 l-31
43 -6 227 c-33 1118 -36 4313 -5 4667 91 1038 469 1993 1074 2715 144 172 637
659 797 787 632 508 1437 839 2352 968 308 43 635 55 933 35z"/>
<path d="M4760 9399 c-89 -367 -167 -580 -274 -755 l-26 -41 53 -7 c28 -3 93
-6 144 -6 l92 0 -36 76 c-23 47 -38 97 -41 129 l-4 53 38 6 c99 14 170 17 234
11 l69 -7 17 -72 17 -72 -27 -51 c-14 -29 -26 -55 -26 -58 0 -3 72 -5 160 -5
88 0 160 2 160 5 0 2 -14 28 -31 57 -17 28 -50 95 -74 148 -41 92 -67 160
-190 508 l-58 162 -42 0 c-23 0 -62 3 -87 6 l-45 6 -23 -93z m92 -437 c-58 -1
-106 -1 -108 1 -5 5 34 154 68 256 l31 94 56 -174 57 -174 -104 -3z"/>
<path d="M5306 9459 c84 -107 113 -159 239 -438 44 -99 46 -107 40 -165 -9
-76 -47 -193 -81 -247 -14 -23 -24 -43 -22 -45 7 -6 268 -47 273 -42 3 2 -5
31 -17 64 -25 70 -30 207 -9 268 10 29 70 97 230 260 l216 220 -135 27 c-74
15 -137 26 -139 24 -2 -2 11 -29 28 -59 17 -31 31 -61 31 -67 0 -21 -102 -138
-169 -194 -66 -56 -81 -64 -81 -44 0 6 -18 51 -40 99 -72 161 -74 220 -8 275
17 14 29 28 26 30 -9 9 -184 35 -285 41 -92 6 -106 5 -97 -7z"/>
<path d="M4182 9419 c-63 -16 -118 -31 -123 -35 -5 -3 5 -22 22 -42 73 -83 97
-193 80 -378 -6 -68 -11 -161 -11 -207 l0 -82 -110 199 c-60 109 -125 224
-143 255 -32 53 -34 60 -29 129 3 58 2 71 -9 68 -163 -52 -246 -80 -252 -86
-10 -9 24 -80 47 -99 14 -11 16 -42 15 -200 -1 -102 -4 -228 -8 -279 l-6 -93
-111 168 c-61 92 -128 196 -148 230 l-37 63 11 76 c6 42 9 78 7 81 -7 6 -337
-99 -337 -108 0 -3 28 -25 63 -48 81 -53 111 -86 182 -201 54 -86 313 -490
321 -499 1 -1 36 8 76 21 l73 25 5 324 c5 307 6 323 22 299 9 -14 75 -128 146
-255 72 -126 137 -239 144 -249 14 -19 16 -19 94 0 l79 19 1 305 c1 358 13
449 79 613 10 23 -6 22 -143 -14z"/>
<path d="M2560 8765 c-129 -108 -236 -200 -238 -204 -1 -5 17 -14 42 -21 59
-16 111 -62 193 -168 37 -48 102 -130 144 -182 88 -110 126 -179 137 -249 l7
-49 93 68 c90 67 260 176 374 240 32 17 61 36 64 41 3 5 -21 52 -53 105 l-58
95 -18 -41 c-10 -23 -23 -70 -29 -103 -6 -34 -15 -67 -20 -74 -11 -14 -193
-123 -206 -123 -26 0 -182 192 -182 224 0 30 24 67 57 87 36 23 123 49 163 49
56 1 55 13 -9 108 -67 101 -78 111 -87 85 -18 -54 -74 -152 -112 -195 -72 -79
-73 -79 -135 4 -29 40 -71 103 -94 140 l-42 67 41 37 c79 71 206 106 311 86
26 -5 47 -8 47 -6 0 2 -18 34 -41 71 -43 71 -73 102 -99 103 -9 0 -121 -88
-250 -195z"/>
<path d="M7070 8853 c-58 -12 -153 -65 -205 -113 -235 -223 -198 -551 80 -719
53 -32 201 -91 228 -91 10 0 117 131 117 143 0 3 -26 -2 -57 -9 -79 -19 -177
-18 -219 2 -40 19 -97 87 -127 151 -18 39 -22 66 -22 148 0 92 3 106 32 167
42 90 108 158 184 193 55 24 69 27 157 23 69 -2 108 -9 136 -22 89 -44 158
-155 159 -258 0 -32 4 -58 8 -58 8 0 76 78 124 143 l28 38 -29 30 c-76 81
-204 164 -316 204 -73 27 -217 41 -278 28z"/>
<path d="M1986 8358 c-194 -206 -223 -321 -107 -420 59 -51 109 -62 239 -54
250 15 327 17 342 7 19 -13 26 -141 11 -197 -11 -39 -13 -42 -57 -48 -26 -3
-93 -6 -150 -6 -57 0 -104 -3 -104 -6 0 -14 96 -174 104 -174 27 0 141 74 198
131 90 88 131 172 130 267 -1 96 -12 119 -75 147 -94 44 -239 50 -452 19 -86
-12 -124 31 -128 143 l-2 66 55 23 55 22 79 -29 c43 -16 80 -28 81 -27 1 2 -4
24 -12 51 -8 30 -30 64 -57 92 -59 62 -85 61 -150 -7z"/>
<path d="M4650 8300 c-278 -18 -563 -98 -1075 -302 -289 -115 -557 -289 -837
-545 -314 -285 -642 -721 -756 -1003 -62 -153 -192 -508 -215 -590 -64 -220
-96 -448 -104 -739 l-6 -224 2779 6 c1528 4 3045 10 3371 14 l591 6 4 66 c6
123 -10 396 -31 524 -41 249 -126 545 -224 782 -189 455 -348 704 -641 1003
-312 319 -685 580 -1021 714 -432 173 -618 231 -880 275 -106 17 -751 26 -955
13z m297 -246 c83 -17 178 -49 281 -95 l66 -30 -52 -24 c-77 -36 -194 -71
-307 -91 -81 -15 -151 -19 -365 -19 l-265 0 -135 63 c-74 35 -139 67 -143 71
-12 12 128 71 231 97 128 32 215 41 430 43 131 1 204 -3 259 -15z m-829 -300
l112 -48 -1 -101 c-1 -55 -4 -159 -8 -232 l-6 -132 -70 32 c-39 18 -95 46
-126 64 -68 38 -65 28 -75 301 l-7 194 34 -15 c19 -8 85 -36 147 -63z m1285
-101 c4 -87 7 -273 7 -414 l0 -255 -100 -11 c-107 -12 -159 -6 -191 23 -18 17
-19 32 -17 352 l3 335 135 62 c74 35 140 64 146 64 7 1 13 -52 17 -156z m1196
17 c30 -12 102 -44 160 -71 101 -48 104 -50 83 -65 -50 -35 -147 -76 -229 -96
-81 -21 -112 -23 -373 -23 -318 0 -296 -4 -508 82 l-112 46 30 19 c101 61 243
121 315 132 17 2 154 3 305 1 254 -3 279 -5 329 -25z m-1639 -320 l0 -340 -22
-4 c-13 -3 -72 -15 -133 -26 -132 -26 -287 -70 -363 -105 -30 -14 -57 -23 -60
-21 -2 3 -7 192 -10 420 l-5 416 296 0 297 0 0 -340z m640 79 c30 -11 97 -39
148 -61 l92 -40 0 -127 c0 -69 -3 -183 -7 -252 l-6 -126 -87 38 c-49 21 -115
52 -149 68 l-61 31 0 245 c0 135 3 245 8 245 4 0 32 -9 62 -21z m1383 -106 c4
-58 7 -375 7 -704 0 -561 -1 -598 -17 -603 -10 -2 -74 -21 -141 -41 -68 -20
-126 -34 -129 -31 -12 11 -22 413 -23 872 l0 481 143 66 c78 36 145 66 148 66
3 1 9 -47 12 -106z m-3146 -32 c84 -21 208 -75 252 -110 l24 -18 -47 -28 c-61
-35 -177 -81 -274 -106 -55 -15 -123 -22 -238 -26 -185 -6 -308 9 -454 57 -95
31 -230 89 -230 99 0 8 194 106 253 128 66 24 164 31 407 28 190 -2 238 -6
307 -24z m2681 14 l22 -7 0 -696 0 -695 -280 5 c-154 3 -282 7 -284 9 -2 2 -6
318 -8 703 l-3 699 265 -6 c146 -3 275 -9 288 -12z m-3570 -307 l132 -52 1
-451 c1 -564 0 -649 -9 -811 l-7 -132 -70 28 c-38 15 -103 39 -142 54 l-73 28
0 700 c0 662 1 700 18 694 9 -3 77 -30 150 -58z m1271 -688 l1 -645 -126 -50
c-70 -27 -130 -51 -134 -53 -12 -5 -30 133 -30 235 0 54 5 181 12 283 9 143 8
223 -1 355 -13 172 -7 284 20 443 l11 63 117 58 116 59 7 -52 c3 -28 6 -341 7
-696z m-522 610 l103 0 0 -548 c0 -302 -3 -618 -7 -702 l-6 -153 -285 7 c-157
3 -287 7 -288 9 -1 1 -4 317 -6 701 l-3 699 194 -6 c107 -4 241 -7 298 -7z
m1783 -66 c47 -18 120 -52 164 -75 l78 -41 -28 -19 c-44 -29 -174 -77 -266
-98 -116 -27 -280 -43 -438 -45 -167 -1 -239 17 -418 106 l-123 61 50 28 c169
97 362 131 691 122 204 -5 205 -5 290 -39z m-875 -308 l60 -24 0 -691 c0 -379
-3 -692 -6 -695 -6 -6 -123 32 -230 74 -56 22 -56 22 -64 73 -4 29 -9 345 -10
704 l-2 651 96 -33 c53 -19 123 -45 156 -59z m1238 -148 c9 -298 9 -992 1
-1091 l-7 -75 -141 -50 -141 -49 -9 449 c-4 251 -4 553 0 684 l9 234 135 64
c74 35 138 64 141 65 3 1 9 -104 12 -231z m-585 95 l142 -6 0 -695 0 -695
-291 5 c-159 3 -292 8 -293 9 -2 2 -6 316 -8 697 l-5 692 156 0 c86 0 220 -3
299 -7z"/>
<path d="M7788 8256 c-147 -43 -308 -216 -339 -365 -56 -273 200 -564 485
-549 224 11 426 240 427 482 0 72 -3 87 -37 155 -51 105 -146 199 -248 247
-64 31 -89 37 -158 40 -51 2 -101 -2 -130 -10z m264 -128 c62 -26 140 -111
162 -174 56 -166 -56 -389 -242 -481 -127 -63 -287 8 -360 159 -83 171 -25
344 155 464 102 68 182 77 285 32z"/>
<path d="M1453 7757 l-72 -112 84 -3 85 -3 137 -99 c76 -55 170 -125 210 -157
69 -54 71 -58 78 -109 3 -29 3 -96 -1 -149 l-7 -97 -80 -39 c-88 -43 -138 -49
-190 -24 -18 8 -88 56 -157 106 -69 50 -162 115 -208 146 -72 49 -83 61 -93
97 -18 73 -26 91 -35 88 -5 -2 -46 -63 -91 -135 l-82 -132 67 -8 c90 -10 161
-46 307 -156 234 -177 334 -204 455 -122 80 53 144 159 190 310 33 107 20 172
-52 264 -36 45 -165 146 -269 210 -42 26 -93 64 -114 84 -38 39 -74 104 -75
136 0 9 -3 17 -7 17 -5 -1 -40 -51 -80 -113z"/>
<path d="M8640 7319 c-288 -72 -510 -109 -659 -109 l-61 0 20 -50 c11 -27 37
-84 58 -126 l38 -76 18 46 c21 55 79 108 138 125 51 16 49 17 118 -119 67
-133 78 -172 56 -204 -23 -36 -66 -55 -136 -63 -33 -3 -60 -8 -60 -10 0 -8 70
-141 108 -207 l41 -68 32 63 c75 149 152 249 412 534 l146 160 -39 70 c-24 44
-46 71 -57 72 -10 0 -88 -16 -173 -38z m50 -106 c0 -12 -88 -122 -160 -201
l-66 -72 -49 100 c-31 62 -46 103 -40 109 6 5 60 20 120 34 157 37 195 42 195
30z"/>
<path d="M1635 6699 c-79 -26 -222 -36 -375 -28 -69 4 -197 11 -285 15 l-161
7 -27 -89 c-14 -49 -23 -91 -19 -95 4 -4 90 -73 192 -154 256 -205 292 -236
396 -337 l90 -89 50 107 c27 59 50 110 52 114 1 4 -35 7 -80 6 -92 -1 -140 18
-167 65 -12 23 -10 34 23 125 20 55 45 114 56 131 36 59 116 52 210 -19 29
-22 53 -38 55 -36 4 4 75 276 75 288 0 13 -14 11 -85 -11z m-349 -193 c5 -4
-74 -221 -80 -220 -5 1 -60 51 -124 110 l-116 109 44 6 c35 5 270 1 276 -5z"/>
<path d="M9004 6630 c-52 -23 -109 -80 -139 -140 -14 -27 -43 -111 -66 -187
-47 -155 -57 -178 -92 -211 -37 -35 -85 -38 -126 -10 -61 42 -76 71 -76 152 0
63 5 82 37 146 20 41 35 76 33 78 -4 4 -215 -55 -222 -62 -3 -2 7 -48 22 -103
49 -187 116 -291 200 -312 128 -32 253 2 299 82 14 23 41 98 61 167 61 205 99
259 185 259 41 1 71 -21 95 -68 30 -60 6 -159 -61 -247 -13 -17 -24 -34 -24
-37 0 -5 224 69 238 78 6 4 -62 213 -84 257 -68 134 -186 201 -280 158z"/>
<path d="M9340 5956 c-68 -15 -116 -40 -130 -66 -12 -23 -3 -28 88 -50 57 -13
53 -7 72 -119 6 -34 9 -65 6 -68 -8 -8 -128 -29 -396 -67 l-235 -35 -77 34
-78 33 0 -23 c0 -29 49 -297 56 -304 2 -3 26 16 52 41 26 25 58 51 71 58 24
12 325 58 530 80 132 15 135 14 127 -66 -5 -62 -24 -102 -78 -167 -22 -27 -39
-50 -37 -51 7 -6 217 9 225 16 9 10 -6 127 -63 476 -38 238 -50 292 -63 291
-8 -1 -40 -7 -70 -13z"/>
<path d="M530 5868 c-18 -99 -25 -337 -10 -410 26 -134 110 -237 247 -305 75
-37 80 -38 187 -38 102 0 116 2 171 29 104 51 188 153 236 288 27 77 38 263
19 351 l-11 57 -90 0 c-101 0 -98 5 -36 -74 57 -73 78 -121 80 -180 2 -115
-71 -229 -181 -283 -53 -26 -66 -28 -177 -28 -102 0 -129 3 -176 23 -120 48
-189 140 -210 279 -11 72 -10 87 4 125 19 48 78 114 145 160 24 16 42 31 40
33 -2 2 -41 8 -88 14 -47 7 -97 14 -111 17 -26 5 -27 3 -39 -58z"/>
<path d="M4685 4673 c-230 -14 -530 -37 -666 -51 l-164 -17 -3 -32 c-4 -40 -1
-40 168 -18 63 8 291 29 505 46 578 48 849 45 1455 -16 224 -23 210 -19 210
-66 l0 -41 -92 8 c-166 13 -1160 10 -1323 -4 -263 -22 -634 -73 -718 -98 -24
-7 -64 -90 -83 -171 -30 -127 -16 -343 32 -485 15 -45 18 -48 77 -67 143 -47
264 -47 617 3 96 14 283 32 415 41 260 16 615 20 615 7 0 -5 -9 -35 -20 -67
-11 -32 -20 -59 -20 -61 0 -2 19 -16 43 -32 23 -16 80 -64 126 -106 47 -42 86
-75 87 -73 2 1 -7 36 -20 77 l-22 74 -87 40 -87 41 31 54 31 54 117 -8 c64 -5
204 -9 311 -10 194 -2 195 -2 285 -35 83 -30 93 -37 120 -78 l30 -46 189 -63
c104 -34 191 -65 194 -67 3 -3 -15 -14 -39 -25 -54 -24 -45 -26 33 -5 33 8 62
13 65 11 2 -3 -32 -45 -76 -93 -93 -103 -127 -160 -142 -239 -22 -122 34 -218
157 -265 62 -24 264 -42 264 -24 0 5 -38 24 -84 43 -100 38 -148 73 -171 121
-22 45 -29 127 -21 223 l7 75 68 31 c39 18 84 31 106 31 33 0 45 -7 86 -49 52
-54 74 -109 85 -209 l7 -63 -44 -46 -44 -45 58 7 57 7 1 -88 c2 -147 13 -165
27 -46 24 204 7 380 -44 454 -39 56 -132 139 -205 184 -35 21 -127 66 -207
100 -79 34 -147 66 -151 70 -5 5 -29 61 -54 124 -42 107 -123 288 -213 475
l-39 80 -5 -55 c-6 -69 -27 -77 -58 -22 -31 55 -38 114 -17 135 9 9 23 17 32
17 11 0 13 7 8 33 -15 74 -91 156 -187 204 -112 56 -244 79 -613 108 -161 13
-836 18 -1000 8z m1288 -243 c230 -13 268 -23 326 -79 72 -70 104 -147 148
-351 5 -23 6 -24 17 -6 70 113 68 112 77 91 57 -147 109 -289 105 -292 -3 -3
-28 0 -56 6 -81 18 -83 17 -76 -28 6 -39 5 -40 -26 -43 -18 -2 -67 0 -108 4
-212 21 -860 52 -1040 51 -175 -1 -245 -6 -473 -37 -375 -50 -597 -62 -744
-40 -39 6 -74 59 -105 157 -25 79 -26 254 -2 373 l17 83 51 11 c104 23 275 49
413 64 307 34 1158 55 1476 36z"/>
<path d="M6511 3961 c-14 -14 -21 -34 -21 -60 0 -45 10 -56 46 -47 23 6 25 10
22 63 -3 63 -16 75 -47 44z"/>
<path d="M3535 4515 c-55 -133 -79 -245 -110 -515 -20 -175 -43 -311 -56 -326
-5 -6 -31 -15 -57 -18 -26 -4 -54 -9 -63 -12 -14 -4 -14 6 2 94 10 55 43 202
75 328 49 196 61 233 85 259 16 17 29 34 29 38 0 5 -23 7 -51 5 l-52 -3 -23
-80 c-13 -44 -46 -177 -74 -295 -69 -294 -71 -299 -160 -500 -100 -227 -113
-266 -149 -468 -56 -310 -90 -652 -91 -899 l0 -133 38 20 c46 23 108 35 116
22 3 -5 -12 -21 -32 -36 -21 -14 -51 -39 -66 -55 l-28 -29 59 -84 59 -83 382
-3 382 -2 21 -43 c38 -74 100 -155 141 -183 34 -24 53 -29 151 -36 62 -5 819
-9 1682 -9 1708 0 1620 -3 1704 55 21 15 48 44 60 66 21 38 23 59 31 291 5
137 12 254 15 260 22 34 -71 314 -123 373 -16 17 -17 11 -22 -99 l-5 -118 -65
103 c-36 57 -80 133 -98 169 l-32 66 4 -72 5 -73 -38 0 -39 0 -7 65 c-3 36
-10 67 -14 69 -4 3 -20 -43 -35 -102 -16 -59 -32 -113 -36 -120 -7 -14 -45 93
-55 158 -16 90 -14 89 -44 37 -15 -26 -32 -52 -38 -58 -11 -11 -33 142 -33
238 -1 58 -1 58 -51 98 l-50 39 7 222 c4 121 3 238 -2 260 -8 39 -8 39 -15
-26 -4 -36 -7 -147 -8 -247 0 -101 -5 -183 -9 -183 -5 0 -92 9 -193 21 -151
17 -216 20 -364 15 -99 -4 -310 -11 -468 -16 -303 -10 -457 -22 -597 -45 -93
-16 -95 -16 -105 45 -11 65 -25 69 -25 7 0 -71 -28 -141 -105 -263 -57 -91
-92 -171 -103 -237 l-7 -39 -53 66 c-42 53 -58 66 -81 66 -37 0 -65 -32 -99
-115 -27 -67 -29 -69 -82 -87 -30 -10 -90 -37 -134 -59 -43 -22 -79 -39 -80
-37 -1 2 -17 53 -35 113 -50 169 -125 310 -184 345 -43 27 -87 25 -131 -5 -25
-17 -38 -21 -41 -12 -18 59 -30 212 -30 382 0 166 4 213 20 275 17 65 20 117
23 400 3 276 -10 635 -23 648 -2 2 -74 -8 -161 -22 -87 -14 -159 -24 -160 -23
-1 1 4 42 12 91 8 49 12 91 10 94 -3 2 -12 -13 -21 -33z m173 -181 l112 -7 0
-244 0 -244 -62 7 c-171 19 -163 17 -163 47 1 31 -7 33 -82 13 l-52 -14 5 27
c6 33 64 422 64 429 0 2 15 2 33 -1 17 -3 83 -9 145 -13z m-208 -556 c11 -75
3 -132 -26 -176 l-18 -27 -9 45 c-12 66 -3 171 18 203 10 15 19 26 21 25 2 -2
8 -34 14 -70z m267 -4 c45 -5 47 -8 58 -82 l7 -43 -59 6 c-45 5 -71 2 -117
-14 -33 -12 -60 -20 -61 -19 -1 2 -5 40 -9 86 l-7 83 73 -6 c40 -3 92 -8 115
-11z m-401 -237 c8 -8 -54 -159 -81 -199 -24 -36 -25 -41 -25 -215 0 -98 -5
-285 -11 -416 -6 -131 -9 -241 -6 -243 2 -3 22 -8 42 -11 l38 -6 -8 69 c-23
195 -20 544 5 609 6 17 27 46 46 66 l35 36 -11 71 c-11 71 -11 72 22 132 l33
60 129 0 129 0 54 -40 c42 -33 52 -45 48 -63 -29 -130 -35 -433 -11 -613 17
-128 15 -148 -44 -454 -22 -113 -42 -221 -45 -242 l-6 -36 -146 39 c-81 21
-152 40 -158 43 -13 5 -30 98 -41 218 -4 43 -10 75 -15 72 -14 -9 -47 -126
-54 -197 l-7 -68 -24 22 c-81 76 -124 195 -159 439 -30 215 -36 236 -77 287
-56 71 -60 86 -48 171 22 144 66 258 168 438 l45 81 90 -23 c49 -12 91 -24 93
-27z m2699 -677 c193 -6 397 -13 453 -16 l104 -6 -6 -33 -6 -32 54 -6 c30 -3
67 -12 82 -20 25 -13 26 -15 8 -20 -33 -10 -1637 -13 -1674 -3 l-35 9 30 9
c17 5 70 18 120 29 49 11 91 22 93 24 2 2 -1 12 -7 23 -10 19 -5 20 102 31 61
6 141 13 177 14 36 2 85 4 110 5 25 1 203 -2 395 -8z m767 -216 l18 -31 -50 5
c-53 5 -560 -14 -642 -24 -39 -5 -48 -10 -48 -25 0 -23 4 -23 215 -4 206 19
317 19 413 -1 72 -15 165 -52 132 -54 -8 0 -139 -7 -290 -15 -576 -29 -890
-38 -1266 -33 -211 3 -386 7 -389 10 -3 2 0 18 7 35 l11 30 300 6 c165 4 412
7 549 7 136 0 248 2 248 4 0 2 3 12 7 22 6 16 -9 17 -238 10 -228 -6 -835 6
-846 17 -10 11 20 49 49 62 25 10 214 12 916 11 l886 -1 18 -31z m3 -194 c3
-5 -4 -25 -17 -43 -21 -33 -26 -35 -93 -41 -38 -3 -302 -10 -585 -15 -283 -5
-581 -15 -663 -21 -149 -13 -315 -10 -352 5 -18 8 -19 7 -5 -10 34 -42 52 -43
515 -34 242 5 598 15 790 23 193 7 352 12 354 10 2 -1 -1 -49 -5 -106 l-9
-103 -60 -29 -60 -30 -265 -8 c-146 -3 -344 -11 -440 -17 -217 -13 -536 -14
-654 -1 -112 11 -135 28 -116 84 11 34 14 36 58 36 99 1 411 21 485 31 96 14
118 35 26 25 -35 -4 -182 -8 -326 -8 -232 -1 -263 -3 -264 -17 -3 -65 -17
-192 -22 -197 -3 -3 -28 -3 -55 1 -47 6 -50 8 -57 41 -11 59 -7 276 5 327 8
32 18 47 29 47 9 0 75 5 146 11 72 6 297 12 500 15 204 2 476 10 605 18 290
16 527 19 535 6z m-3832 -32 c8 -11 8 -24 0 -41 -9 -20 -17 -23 -38 -19 -33 6
-41 25 -26 58 13 29 47 30 64 2z m4002 -115 c28 3 105 11 172 18 67 7 124 11
127 8 2 -2 7 -19 11 -36 l7 -33 -109 0 c-59 1 -153 5 -208 10 -55 5 -101 7
-104 5 -2 -2 11 -13 29 -24 l33 -19 -52 -26 c-60 -31 -57 -36 -41 91 18 138
18 137 54 65 l31 -64 50 5z m-3017 -102 c-6 -87 -6 -150 2 -208 9 -72 9 -87
-6 -115 l-17 -33 -13 45 c-8 25 -19 71 -25 103 -9 43 -16 57 -29 57 -14 0 -18
14 -24 93 -4 50 -9 112 -12 137 l-5 45 28 -52 c15 -29 30 -53 33 -53 3 0 21
25 40 54 19 30 35 54 36 53 1 -1 -2 -58 -8 -126z m964 8 c-4 -4 -45 -19 -92
-34 -128 -41 -128 -42 20 -70 118 -22 117 -22 87 -45 -32 -25 -70 -40 -132
-50 -64 -10 -478 5 -526 19 -48 15 -89 54 -89 86 l0 25 110 0 c61 0 110 3 110
8 -1 4 -22 22 -47 41 l-47 35 54 12 c130 31 252 45 388 45 127 0 142 2 143 17
0 9 7 -5 14 -33 8 -27 11 -53 7 -56z m2428 0 c27 -6 50 -14 50 -19 0 -4 -19
-16 -42 -26 -33 -14 -77 -19 -187 -22 -157 -4 -169 2 -73 38 98 38 173 46 252
29z m-4381 -18 c12 -8 12 -12 2 -25 -14 -17 -61 -22 -61 -7 0 37 28 51 59 32z
m549 -156 c70 -17 135 -47 170 -79 30 -26 65 -93 53 -100 -38 -24 -327 -46
-387 -30 l-21 6 19 96 c11 53 21 103 23 110 6 16 65 15 143 -3z m1085 -423
c65 -22 74 -28 56 -34 -33 -12 -265 -31 -294 -24 -25 6 -25 7 -9 37 33 64 101
70 247 21z"/>
<path d="M4234 3451 c4 -5 86 -35 184 -67 97 -31 179 -59 181 -60 2 -2 -28
-33 -67 -69 -111 -103 -172 -222 -172 -336 0 -64 44 -123 125 -164 49 -25 73
-31 144 -33 81 -4 90 -2 151 30 50 26 71 44 94 81 16 26 27 49 24 52 -2 2 -22
-7 -43 -22 -88 -59 -219 -82 -284 -49 -51 27 -83 102 -82 191 1 111 88 208
204 229 46 8 136 -15 159 -41 9 -10 30 -85 47 -167 17 -83 34 -152 36 -154 2
-3 9 8 15 24 6 16 22 60 37 98 24 64 25 70 10 100 -77 160 -259 260 -601 331
-67 14 -132 27 -144 30 -14 4 -21 2 -18 -4z"/>
<path d="M2703 1263 l-123 -4 0 -414 0 -415 78 0 c42 0 101 3 130 6 l52 7 1
276 c1 152 4 286 7 298 6 20 12 16 62 -45 111 -136 290 -340 380 -434 l92 -98
214 0 214 0 0 410 0 410 -135 0 -135 0 0 -306 0 -306 -138 173 c-77 96 -184
224 -240 285 -143 157 -169 166 -459 157z"/>
<path d="M3957 1264 c-4 -4 -7 -193 -7 -421 l0 -413 83 0 c45 0 99 3 120 6
l37 7 0 408 0 409 -99 0 c-55 0 -106 2 -113 5 -8 3 -17 2 -21 -1z"/>
<path d="M5310 1260 c-52 -3 -114 -12 -137 -18 -52 -15 -121 -67 -145 -109
-28 -46 -51 -246 -45 -368 10 -177 48 -251 149 -296 49 -21 71 -23 278 -28
278 -7 498 2 539 23 62 32 85 82 116 242 7 39 -6 44 -115 44 l-75 0 -20 -37
c-35 -64 -71 -77 -220 -81 -175 -5 -335 11 -352 35 -35 47 -46 163 -29 306 6
52 12 70 28 78 27 14 306 24 429 15 l95 -8 20 -41 19 -42 105 4 c58 1 106 4
108 6 8 8 -30 152 -50 187 -35 63 -62 78 -163 88 -98 11 -385 11 -535 0z"/>
<path d="M6217 1264 c-4 -4 -7 -191 -7 -416 l0 -408 430 0 431 0 -3 98 -3 97
-291 3 -291 2 -6 173 c-4 94 -7 234 -7 310 l0 137 -102 0 c-57 0 -112 3 -123
6 -11 3 -24 2 -28 -2z"/>
<path d="M7144 1256 c-10 -25 3 -552 15 -615 12 -65 42 -111 95 -145 72 -47
101 -50 421 -50 252 -1 310 2 362 16 78 22 137 60 156 101 33 70 45 242 40
565 l-3 142 -97 0 c-156 0 -139 33 -146 -284 -4 -150 -10 -286 -13 -303 -6
-31 -8 -32 -72 -39 -67 -7 -459 0 -468 8 -13 14 -23 179 -24 381 l0 227 -77 0
c-43 0 -102 3 -130 6 -44 6 -54 4 -59 -10z"/>
<path d="M8403 1264 c-10 -4 -13 -98 -13 -416 l0 -411 468 5 c444 4 469 6 513
25 85 38 128 108 129 207 0 81 -28 138 -85 172 l-44 25 33 43 c89 117 67 280
-43 329 -43 19 -70 20 -496 23 -247 2 -456 1 -462 -2z m785 -197 c27 -25 32
-48 17 -84 -17 -41 -33 -43 -323 -43 l-245 0 7 46 c3 26 6 60 6 76 l0 29 259
-3 c233 -3 261 -5 279 -21z m29 -309 c34 -32 32 -91 -4 -115 -24 -16 -59 -18
-300 -21 l-273 -4 0 81 0 80 53 4 c28 3 153 3 276 1 215 -3 225 -5 248 -26z"/>
<path d="M600 845 l0 -415 125 0 125 0 2 299 3 299 80 -131 c43 -73 126 -205
184 -295 l105 -162 51 0 c27 0 73 -3 101 -6 l51 -6 88 158 c132 235 269 443
283 429 3 -3 9 -135 12 -293 l5 -287 114 -3 114 -3 -7 408 c-4 224 -10 411
-12 415 -3 5 -88 8 -190 8 l-184 0 -59 -119 c-95 -188 -239 -419 -262 -421 -4
0 -10 8 -13 18 -4 9 -70 128 -147 263 l-141 246 -52 7 c-28 3 -124 6 -213 6
l-163 0 0 -415z"/>
<path d="M2170 845 l0 -416 133 3 132 3 3 370 c2 204 0 389 -3 413 l-6 42
-130 0 -129 0 0 -415z"/>
</g>
</svg>
